<?xml version="1.0" encoding="utf-8"?>
<!-- Generator: Adobe Illustrator 17.0.0, SVG Export Plug-In . SVG Version: 6.00 Build 0)  -->
<!DOCTYPE svg PUBLIC "-//W3C//DTD SVG 1.1//EN" "http://www.w3.org/Graphics/SVG/1.1/DTD/svg11.dtd">
<svg version="1.1" id="Layer_1" xmlns="http://www.w3.org/2000/svg" xmlns:xlink="http://www.w3.org/1999/xlink" x="0px" y="0px"
	 width="182px" height="71px" viewBox="0 0 182 71" enable-background="new 0 0 182 71" xml:space="preserve">
<g>
	<path fill="#231F20" d="M36.638,48.127h-2.256c-1.815,0-3.356-0.64-4.627-1.922c-1.27-1.282-1.906-2.812-1.906-4.591v-8.944
		c0-1.832-0.658-3.4-1.974-4.709c-1.316-1.307-2.893-1.962-4.734-1.962c-1.842,0-3.421,0.655-4.736,1.962
		c-1.316,1.309-1.973,2.877-1.973,4.709c0,1.832,0.653,3.386,1.961,4.669c1.307,1.282,2.877,1.922,4.708,1.922
		c3.296,0.68,4.944,2.851,4.944,6.513v2.274l-4.944,0.079c-4.237,0.052-7.873-1.447-10.906-4.498
		c-3.035-3.055-4.551-6.693-4.551-10.92c0-4.28,1.503-7.92,4.511-10.919c3.008-3,6.656-4.5,10.946-4.5
		c4.237,0,7.886,1.526,10.947,4.579c3.06,3.053,4.59,6.718,4.59,10.997V48.127z"/>
	<path fill="#231F20" d="M101.217,19.485c0,1.779-0.632,3.31-1.892,4.591c-1.262,1.282-2.786,1.896-4.571,1.845h-4.02
		c-1.631-0.052-3.063,0.454-4.298,1.524c-1.236,1.071-1.984,2.412-2.246,4.026c0.05,0.104,0.05,3.44,0,10.008
		c0,1.825-0.625,3.364-1.868,4.614c-1.244,1.25-2.774,1.876-4.587,1.876h-2.333V32.511c0-4.288,1.516-7.938,4.551-10.947
		c3.034-3.007,6.696-4.485,10.985-4.433l10.279,0.078V19.485z"/>
	<g>
		<path fill="#231F20" d="M114.295,41.378c0,1.83-0.642,3.388-1.921,4.669c-1.284,1.284-2.814,1.922-4.593,1.922h-2.274V23.723
			c0-1.83,0.64-3.386,1.921-4.669c1.282-1.281,2.812-1.922,4.591-1.922h2.276V41.378z"/>
	</g>
	<g>
		<path fill="#231F20" d="M116.813,7.604c0,1.689-0.576,3.108-1.727,4.26c-1.151,1.152-2.534,1.727-4.147,1.727
			c-1.689,0-3.108-0.575-4.262-1.727c-1.151-1.152-1.727-2.572-1.727-4.26c0-1.613,0.576-3.012,1.727-4.203
			c1.153-1.19,2.573-1.786,4.262-1.786c1.613,0,2.996,0.596,4.147,1.786C116.236,4.592,116.813,5.991,116.813,7.604z"/>
	</g>
	<path fill="#231F20" d="M71.582,29.92c0.104,0.576,0.156,1.125,0.156,1.648c0,1.727-0.523,3.139-1.568,4.236l-0.394,0.315
		c-1.255,1.256-2.799,1.882-4.628,1.882c-1.78,0-3.296-0.63-4.551-1.895l-1.649-1.658l3.767-3.789
		c-0.367-1.424-1.138-2.595-2.315-3.518c-1.177-0.919-2.525-1.382-4.041-1.382c-1.832,0-3.401,0.659-4.709,1.975
		c-1.308,1.314-1.962,2.894-1.962,4.735c0,1.842,0.654,3.408,1.962,4.696c1.308,1.291,2.876,1.962,4.709,2.012h5.493
		c1.777,0,3.229,0.629,4.356,1.883c1.123,1.256,1.686,2.774,1.686,4.55v2.277H56.516c-4.291,0-7.965-1.513-11.026-4.54
		c-3.06-3.025-4.589-6.652-4.589-10.879s1.503-7.854,4.513-10.879c3.006-3.027,6.656-4.54,10.946-4.54
		c3.767,0,7.087,1.215,9.966,3.649C69.201,23.134,70.954,26.207,71.582,29.92z"/>
	<path fill="#231F20" d="M150.074,48.664h-2.256c-1.814,0-3.356-0.639-4.627-1.923c-1.27-1.282-1.905-2.811-1.905-4.591v-8.945
		c0-1.831-0.659-3.4-1.975-4.709c-1.316-1.307-2.894-1.963-4.735-1.963c-1.842,0-3.422,0.656-4.737,1.963
		c-1.317,1.308-1.973,2.877-1.973,4.709c0,1.832,0.653,3.386,1.963,4.668c1.305,1.282,2.876,1.922,4.707,1.922
		c3.296,0.68,4.944,2.852,4.944,6.514v2.274l-4.944,0.079c-4.237,0.053-7.873-1.447-10.907-4.499
		c-3.035-3.054-4.55-6.692-4.55-10.919c0-4.28,1.503-7.919,4.512-10.919c3.007-3,6.656-4.5,10.945-4.5
		c4.238,0,7.886,1.527,10.946,4.579c3.061,3.053,4.591,6.718,4.591,10.997V48.664z"/>
</g>
<g>
	<path fill="#007DC5" d="M103.148,61.02c-0.014,0.927-1.018,1.978-3.007,3.154c-0.652,0.391-1.646,0.89-2.983,1.493
		c-1.077,0.525-1.912,0.89-2.505,1.093c-1.001,0.353-2.065,0.586-3.191,0.697c-0.573,0.057-1.075,0.094-1.508,0.111
		c-0.434,0.017-0.899,0.033-1.397,0.048c-1.477,0.146-2.763-0.143-3.858-0.87c-1.185-0.791-1.768-1.85-1.747-3.177
		c0.03-1.965,0.836-3.933,2.415-5.904c1.856-1.91,3.036-3.134,3.542-3.675c0.581-0.621,1.876-1.512,3.886-2.673
		c2.51-1.447,4.55-2.249,6.119-2.404c0.48-0.048,0.968,0.058,1.461,0.318c0.402,0.215,0.601,0.495,0.596,0.841
		c-0.004,0.254-0.056,0.605-0.156,1.051c-0.02,0.147-0.07,0.352-0.148,0.614c-0.546,0.727-1.489,1.529-2.83,2.407
		c-1.173,0.771-2.038,1.239-2.594,1.403c-0.092,0.027-0.128-0.033-0.107-0.18c0.021-0.148,0.059-0.27,0.116-0.366
		c0.132-0.231,0.927-0.946,2.384-2.146c0.507-0.596,1.014-1.192,1.522-1.787l-1.357,0.134c-1.477,0.146-3.054,0.793-4.731,1.94
		c-0.913,0.636-1.987,1.523-3.221,2.662c-1.441,1.342-2.623,2.703-3.548,4.084c-0.925,1.381-1.395,2.544-1.409,3.49
		c-0.013,0.763,0.558,1.379,1.712,1.845c0.896,0.365,1.558,0.526,1.983,0.485l3.046-0.302c1.199-0.12,2.225-0.322,3.078-0.605
		c0.852-0.284,1.724-0.589,2.614-0.913c0.037-0.004,0.12-0.057,0.251-0.16c0.131-0.105,0.223-0.159,0.279-0.164
		c0.743-0.382,1.3-0.692,1.674-0.928c1.117-0.727,1.68-1.383,1.69-1.965c0.007-0.417-0.366-0.817-1.115-1.196
		c-0.95-0.486-2.128-0.66-3.53-0.521l-2.355,0.234c-0.298,0.156-0.575,0.275-0.835,0.355c-0.796,0.261-1.767,0.447-2.912,0.561
		c-0.258,0.026-0.552-0.054-0.881-0.238c-0.329-0.186-0.491-0.424-0.486-0.715c0.008-0.545,0.499-0.957,1.471-1.235
		c0.972-0.278,2.473-0.518,4.504-0.72c2.676-0.265,4.763,0.018,6.261,0.848C102.567,58.719,103.169,59.711,103.148,61.02z"/>
	<path fill="#007DC5" d="M117.441,57.491c-1.242,0.45-2.669,1.08-4.003,1.557c-2.67,0.956-4.384,1.552-5.143,1.79
		c-0.427,0.134-1.295,1.426-2.606,3.88c-0.437,0.805-1.054,2.016-1.853,3.634c-0.133,0.14-0.364,0.227-0.696,0.26
		c-0.111,0.011-0.231,0.023-0.359,0.036c-0.038,0.004-0.094,0.009-0.166,0.016c-0.185,0.019-0.36,0.036-0.526,0.052
		c-0.073-0.048-0.109-0.117-0.108-0.208c0.076-0.244,0.118-0.448,0.12-0.612c0.019-1.239,0.444-2.491,1.276-3.756
		c0.832-1.265,1.249-2.097,1.256-2.497c0.004-0.255-0.154-0.454-0.474-0.595c-0.322-0.14-0.48-0.321-0.476-0.54
		c0.004-0.255,0.209-0.439,0.617-0.552c1.278-0.364,2.494-1.475,3.648-3.336c0.339-0.562,0.962-1.386,1.864-2.477
		c1.146-1.386,1.917-2.355,2.313-2.903l1.778-2.304c1.685-1.677,3.371-3.355,5.055-5.032c0.692-0.669,1.214-0.994,1.564-0.974
		c0.46,0.027,0.881,0.494,1.263,1.4c0.382,0.907,0.564,1.943,0.546,3.107c-0.01,0.619-0.075,1.301-0.198,2.049
		c-0.122,0.748-0.303,1.687-0.542,2.82c-0.02,0.093-0.064,0.261-0.131,0.503c-0.069,0.244-0.104,0.428-0.106,0.555
		c-0.004,0.218,0.059,0.389,0.186,0.513c0.126,0.123,0.254,0.179,0.383,0.166c0.148-0.014,0.315-0.067,0.501-0.158
		c0.483-0.229,0.734-0.345,0.752-0.347c0.128-0.013,0.221,0.05,0.273,0.191c-0.003,0.182-0.006,0.363-0.009,0.544
		c-0.003,0.2-0.256,0.461-0.759,0.783c-1.21,0.792-1.874,1.375-1.991,1.75c-0.368,1.144-0.572,1.79-0.611,1.939
		c-0.175,0.581-0.263,0.925-0.264,1.034c0.016,0.107-0.37,1.18-0.408,1.292c-0.16,0.797-0.308,1.446-0.445,1.95
		c-0.274,0.972-0.642,1.48-1.103,1.525c-0.277,0.027-0.506-0.059-0.687-0.258c-0.109-0.116-0.235-0.348-0.376-0.697
		c-0.106-0.281,0.109-1.305,0.643-3.072c0.535-1.769,0.945-2.939,1.231-3.512c-0.071-0.011-0.134-0.022-0.186-0.036
		C118.177,57.162,117.727,57.318,117.441,57.491z M119.829,51.683c-0.016-0.089-0.014-0.225,0.007-0.409l0.149-0.695
		c0.062-0.423,0.174-1.143,0.339-2.158c0.164-1.014,0.248-1.684,0.253-2.012c0.007-0.436-0.071-0.746-0.234-0.93
		c-0.992,0.933-1.974,1.856-2.947,2.77c-1.803,2.175-2.752,3.313-2.846,3.413c-0.808,0.97-1.475,1.763-2.001,2.377
		c-0.187,0.201-0.394,0.43-0.619,0.688c-0.357,0.453-1.015,1.226-1.972,2.319c-0.601,0.695-0.902,1.115-0.904,1.261
		c-0.002,0.109,0.117,0.151,0.357,0.128l0.415-0.042c0.314-0.031,0.778-0.195,1.391-0.492c0.093-0.045,0.223-0.113,0.39-0.203
		c0.5-0.103,1.899-0.596,4.198-1.478c0.76-0.276,1.853-0.702,3.282-1.279c0.133-0.249,0.234-0.517,0.304-0.806
		c0.069-0.288,0.105-0.523,0.108-0.705C119.502,53.14,119.829,51.683,119.829,51.683z"/>
	<path fill="#007DC5" d="M148.079,44.987c-0.011,0.69-0.305,1.845-0.884,3.464c-0.672,1.72-1.344,3.438-2.016,5.157
		c-0.099,0.464-0.313,1.084-0.638,1.86c-0.382,0.856-0.756,1.71-1.119,2.563c-0.31,0.957-0.61,1.914-0.902,2.869
		c-0.251,0.714-0.524,1.087-0.819,1.116c-0.184,0.019-0.436-0.124-0.754-0.429c-0.317-0.304-0.474-0.574-0.471-0.812
		c0.094-0.117,0.16-0.223,0.198-0.318c0.152-0.342,0.233-0.749,0.241-1.222c0.212-0.602,0.425-1.213,0.637-1.833
		c0.54-1.524,1.06-2.901,1.558-4.129c0.692-1.738,1.359-3.211,2.006-4.419c0.076-0.153,0.115-0.348,0.119-0.584
		c0.002-0.163-0.004-0.308-0.02-0.434c-0.016-0.126-0.043-0.241-0.077-0.346c-0.13,0.049-0.57,0.401-1.317,1.057
		c-1.813,1.595-3.35,3.209-4.61,4.839c-0.151,0.197-1.217,1.738-3.198,4.62c-0.774,1.129-1.455,1.723-2.046,1.781
		c-0.185,0.019-0.368-0.095-0.548-0.341c-0.18-0.244-0.268-0.558-0.262-0.939c0.498-1.156,0.941-2.39,1.331-3.699
		c0.39-1.31,0.591-2.418,0.605-3.327l0.017-1.091c-0.573,0.111-1.468,0.78-2.686,2.008c-0.974,0.985-1.968,2.1-2.984,3.343
		c-0.47,0.591-0.931,1.181-1.382,1.77c-0.714,0.852-1.725,2.421-3.033,4.709c-0.815,1.406-1.554,2.141-2.219,2.207
		c-0.181-0.127-0.319-0.223-0.41-0.287c-0.273-0.226-0.408-0.421-0.405-0.585c0.005-0.345,0.379-1.235,1.12-2.669
		c0.4-0.766,1.092-2.012,2.076-3.744c0.361-0.633,0.731-1.279,1.109-1.933c0.212-0.529,0.61-1.308,1.198-2.335
		c0.588-1.029,1.185-2.073,1.792-3.132c0.174-0.453,0.356-0.915,0.547-1.389c0.247-0.496,0.584-0.765,1.008-0.807
		c0.219,0.105,0.374,0.198,0.466,0.28c0.327,0.277,0.488,0.56,0.483,0.851c-0.149,0.087-0.319,0.34-0.509,0.758
		c-0.192,0.419-0.358,1.016-0.498,1.793c0.633-0.39,1.426-1.031,2.379-1.925c1.703-1.585,2.831-2.404,3.385-2.459
		c0.425-0.042,0.69,0.085,0.796,0.383c0.105,0.299,0.154,0.73,0.146,1.293c-0.006,0.364-0.057,0.668-0.152,0.914
		c-0.097,0.246-0.146,0.45-0.148,0.613c-0.009,0.582-0.031,1.102-0.066,1.559c-0.036,0.457-0.073,0.806-0.114,1.046
		c0.731-0.763,1.471-1.525,2.22-2.29c1.929-1.952,3.399-3.396,4.409-4.331c1.702-1.571,2.774-2.378,3.218-2.422
		c0.24-0.024,0.505,0.141,0.795,0.493C147.939,44.456,148.083,44.751,148.079,44.987z"/>
	<path fill="#007DC5" d="M165.89,42.816c-0.839,0.646-1.852,1.155-3.038,1.527c-1.351,0.316-2.7,0.631-4.051,0.946
		c-0.427,0.17-0.769,0.277-1.028,0.32c-0.259,0.045-0.566,0.137-0.917,0.281c-1.874,0.768-2.998,1.333-3.372,1.697
		c-0.88,0.832-1.681,2.545-2.404,5.139c0.293,0.043,0.543,0.055,0.746,0.035c0.128-0.013,0.249-0.061,0.362-0.145
		c1.928-0.699,3.475-1.253,4.642-1.659c1.168-0.405,1.983-0.631,2.445-0.677c0.092-0.009,0.215,0.033,0.371,0.126
		c0.155,0.093,0.306,0.178,0.452,0.254c-0.228,0.404-0.325,0.676-0.29,0.818c0.017,0.053,0.016,0.09-0.001,0.109
		c-0.171,0.271-1.109,0.737-2.815,1.396c-1.094,0.435-2.632,0.978-4.615,1.628c-0.815,0.281-1.631,0.552-2.445,0.815
		c-0.286,0.537-0.495,0.966-0.628,1.288c-0.441,1.005-0.664,1.753-0.672,2.244c-0.005,0.345,0.167,0.528,0.517,0.548
		c0.349,0.019,0.682,0.014,0.996-0.017l3.742-0.644l0.415-0.041c0.019-0.094,0.252-0.161,0.695-0.206l0.553-0.055
		c0.61-0.06,1.137-0.24,1.585-0.538c0.392-0.33,0.793-0.66,1.204-0.991c0.111-0.011,0.202,0.034,0.275,0.136
		c0.217,0.251,0.324,0.522,0.319,0.812c-0.004,0.237-0.118,0.42-0.341,0.551c-0.913,0.599-1.825,1.189-2.737,1.77
		c-1.152,0.477-2.603,0.803-4.357,0.977l-1.246,0.123c-1.145,0.114-1.901,0.152-2.269,0.117c-1.068-0.112-1.591-0.796-1.571-2.049
		l0.022-1.363l3.009-6.696c0.799-1.604,1.393-3.06,1.783-4.37c0.292-0.955,0.833-1.471,1.627-1.55
		c0.076-0.134,0.16-0.234,0.255-0.299c0.279-0.207,0.705-0.341,1.277-0.398c0.074-0.007,0.18-0.04,0.319-0.1
		c0.14-0.059,0.219-0.09,0.237-0.092c0.541-0.416,1.501-0.829,2.881-1.239c1.379-0.408,3.056-0.711,5.032-0.907l2.077-0.206
		c0.203-0.02,0.377,0.022,0.523,0.125C165.601,42.46,165.746,42.613,165.89,42.816z"/>
	<path fill="#007DC5" d="M177.009,43.386c-0.002,0.109-0.125,0.294-0.368,0.554c-0.488,0.52-0.833,0.79-1.037,0.81l-1.107,0.11
		c-1.273,0.126-2.356,0.379-3.247,0.758c-1.152,0.585-2.165,1.085-3.038,1.498c-0.037,0.022-0.43,0.134-1.179,0.335
		c-0.75,0.201-1.332,0.567-1.746,1.098c0.144,0.149,0.838,0.637,2.078,1.465c1.24,0.83,2.15,1.569,2.73,2.218
		c0.887,1,1.323,2.045,1.305,3.134c-0.01,0.599-0.175,1.178-0.498,1.735c-0.189,0.346-0.499,0.73-0.93,1.153
		c-0.205,0.148-0.391,0.266-0.558,0.355c-0.521,0.287-1.077,0.515-1.669,0.682c-0.074,0.026-0.195,0.047-0.362,0.063
		c-0.941,0.094-2.081-0.119-3.417-0.636c-1.429-0.562-2.138-1.17-2.128-1.82c0.007-0.38,0.038-0.618,0.094-0.714
		c0.057-0.114,0.188-0.181,0.391-0.201c0.258-0.008,0.47-0.02,0.636-0.036c0.074-0.007,0.581,0.307,1.52,0.942
		c0.939,0.635,1.62,0.932,2.045,0.89c0.572-0.057,0.966-0.209,1.182-0.458c0.216-0.248,0.472-0.388,0.766-0.417
		c0.226-0.221,0.385-0.4,0.48-0.537c0.338-0.433,0.51-0.795,0.515-1.085c0.014-0.907-0.544-1.804-1.671-2.69
		c-1.059-0.71-2.107-1.423-3.146-2.135c-1.148-0.828-1.717-1.588-1.706-2.279c0.011-0.708,1.966-1.899,5.863-3.574
		c0.946-0.402,2.184-0.873,3.714-1.415c1.529-0.541,2.478-0.83,2.847-0.867c0.406-0.041,0.783,0.036,1.13,0.228
		C176.843,42.744,177.015,43.022,177.009,43.386z"/>
</g>
<rect fill="none" width="182" height="71"/>
</svg>
